<svg width="541" height="360" viewBox="0 0 541 360" fill="none" xmlns="http://www.w3.org/2000/svg">
<path d="M69.7236 0C97.922 -6.17014e-07 122.209 16.7599 133.193 40.872H391.592V40.8769C407.307 40.4937 429.778 44.3988 449.342 58.2891C471.026 73.6865 486.217 99.356 486.217 135.607C486.217 171.859 471.026 197.528 449.342 212.925C429.722 226.856 407.177 230.751 391.456 230.342H159.436L158.862 230.318C153.037 230.093 143.761 231.811 136.831 236.731C131.539 240.488 125.149 247.65 125.148 265.245C125.149 282.838 131.54 289.996 136.831 293.754C143.761 298.675 153.036 300.391 158.862 300.166L159.436 300.147H511.118C527.62 300.148 540.999 313.542 541 330.063C540.999 346.585 527.621 359.979 511.118 359.98H160.01V359.975C144.296 360.358 121.825 356.453 102.261 342.563C80.5761 327.165 65.3856 301.496 65.3853 265.245C65.3859 228.993 80.5762 203.324 102.261 187.927C121.881 173.996 144.426 170.1 160.146 170.509H392.166L392.74 170.534C398.566 170.758 407.842 169.042 414.772 164.121C420.063 160.364 426.454 153.202 426.454 135.607C426.454 118.015 420.063 110.856 414.772 107.098C407.842 102.177 398.566 100.461 392.74 100.685L392.166 100.705H132.254C120.868 123.755 97.1478 139.61 69.7236 139.61C31.2163 139.61 8.41603e-07 108.357 0 69.8048C-8.41603e-07 31.2527 31.2163 8.42583e-07 69.7236 0Z" fill="#C1F11D"/>
</svg>
